<?xml version="1.0" encoding="utf-8"?>
<!-- Generator: Adobe Illustrator 17.0.0, SVG Export Plug-In . SVG Version: 6.00 Build 0)  -->
<!DOCTYPE svg PUBLIC "-//W3C//DTD SVG 1.1//EN" "http://www.w3.org/Graphics/SVG/1.1/DTD/svg11.dtd">
<svg version="1.1" id="Layer_1" xmlns="http://www.w3.org/2000/svg" xmlns:xlink="http://www.w3.org/1999/xlink" x="0px" y="0px"
	 width="300px" height="300px" viewBox="0 0 300 300" enable-background="new 0 0 300 300" xml:space="preserve">
<g display="none">
	<g display="inline">
		<g>
			<g>
				<path fill="#7F7F7F" stroke="#D1D1D1" stroke-width="3" stroke-linejoin="round" stroke-miterlimit="10" d="M150.824,149.017
					l116.249,87.6c-48.38,64.203-139.646,77.029-203.849,28.649S-13.805,125.62,34.575,61.417
					c28.06-37.237,69.623-57.96,116.249-57.96V149.017z"/>
			</g>
		</g>
		<g>
			<g>
				<path fill="#808080" stroke="#D1D1D1" stroke-width="3" stroke-linejoin="round" stroke-miterlimit="10" d="M150.824,149.017
					l143.767-22.771c6.489,40.971-2.554,77.242-27.518,110.37L150.824,149.017z"/>
			</g>
		</g>
		<g>
			<g>
				<path fill="#DFDFDF" stroke="#D1D1D1" stroke-width="3" stroke-linejoin="round" stroke-miterlimit="10" d="M150.824,149.017
					l56.875-133.988c47.73,20.26,78.781,60.004,86.893,111.218L150.824,149.017z"/>
			</g>
		</g>
		<g>
			<g>
				<path fill="#505050" stroke="#D1D1D1" stroke-width="3" stroke-linejoin="round" stroke-miterlimit="10" d="M150.824,149.017
					V3.458c20.741,0,37.783,3.467,56.875,11.571L150.824,149.017z"/>
			</g>
		</g>
	</g>
	<g display="inline">
		<g>
		</g>
		<g>
		</g>
		<g>
		</g>
		<g>
		</g>
	</g>
</g>
<g>
	<g>
		<line fill="none" stroke="#5E5E5E" stroke-miterlimit="10" x1="16.328" y1="285" x2="289.511" y2="285"/>
		<g>
			<g>
				<line fill="none" stroke="#000000" stroke-miterlimit="10" x1="16.328" y1="285" x2="16.328" y2="278.227"/>
				<line fill="none" stroke="#5E5E5E" stroke-miterlimit="10" x1="289.511" y1="285" x2="289.511" y2="278.227"/>
			</g>
			<g>
			</g>
		</g>
	</g>
	<g>
		<g>
			<text transform="matrix(1 0 0 1 5.4894 289.8009)" font-family="'MyriadPro-Regular'" font-size="12.8054">0</text>
			<text transform="matrix(1 0 0 1 5.4894 255.9337)" font-family="'MyriadPro-Regular'" font-size="12.8054">1</text>
			<text transform="matrix(1 0 0 1 5.4894 222.0626)" font-family="'MyriadPro-Regular'" font-size="12.8054">2</text>
			<text transform="matrix(1 0 0 1 5.4894 188.1974)" font-family="'MyriadPro-Regular'" font-size="12.8054">3</text>
			<text transform="matrix(1 0 0 1 5.4894 154.3302)" font-family="'MyriadPro-Regular'" font-size="12.8054">4</text>
			<text transform="matrix(1 0 0 1 5.4894 120.4611)" font-family="'MyriadPro-Regular'" font-size="12.8054">5</text>
			<text transform="matrix(1 0 0 1 5.4894 86.5939)" font-family="'MyriadPro-Regular'" font-size="12.8054">6</text>
			<text transform="matrix(1 0 0 1 5.4894 52.7267)" font-family="'MyriadPro-Regular'" font-size="12.8054">7</text>
			<text transform="matrix(1 0 0 1 5.4894 18.8575)" font-family="'MyriadPro-Regular'" font-size="12.8054">8</text>
		</g>
		<line fill="none" stroke="#5E5E5E" stroke-miterlimit="10" x1="16.328" y1="285" x2="16.328" y2="14.057"/>
		<g>
			<g>
				<line fill="none" stroke="#5E5E5E" stroke-miterlimit="10" x1="16.328" y1="285" x2="23.158" y2="285"/>
				<line fill="none" stroke="#5E5E5E" stroke-miterlimit="10" x1="16.328" y1="251.132" x2="23.158" y2="251.132"/>
				<line fill="none" stroke="#5E5E5E" stroke-miterlimit="10" x1="16.328" y1="217.264" x2="23.158" y2="217.264"/>
				<line fill="none" stroke="#5E5E5E" stroke-miterlimit="10" x1="16.328" y1="183.397" x2="23.158" y2="183.397"/>
				<line fill="none" stroke="#5E5E5E" stroke-miterlimit="10" x1="16.328" y1="149.529" x2="23.158" y2="149.529"/>
				<line fill="none" stroke="#5E5E5E" stroke-miterlimit="10" x1="16.328" y1="115.661" x2="23.158" y2="115.661"/>
				<line fill="none" stroke="#5E5E5E" stroke-miterlimit="10" x1="16.328" y1="81.793" x2="23.158" y2="81.793"/>
				<line fill="none" stroke="#5E5E5E" stroke-miterlimit="10" x1="16.328" y1="47.925" x2="23.158" y2="47.925"/>
				<line fill="none" stroke="#5E5E5E" stroke-miterlimit="10" x1="16.328" y1="14.057" x2="23.158" y2="14.057"/>
			</g>
			<g>
			</g>
		</g>
	</g>
	<g>
		<g>
			<g>
				<rect x="220.669" y="47.925" fill="#7C7C7C" width="39.338" height="237.075"/>
			</g>
		</g>
		<g>
			<g>
				<rect x="176.96" y="115.661" fill="#A5A5A5" width="39.338" height="169.339"/>
			</g>
		</g>
		<g>
			<g>
				<rect x="133.25" y="217.264" fill="#767676" width="39.338" height="67.736"/>
			</g>
		</g>
		<g>
			<g>
				<rect x="89.541" y="183.397" fill="#DFDFDF" width="39.338" height="101.604"/>
			</g>
		</g>
		<g>
			<g>
				<rect x="45.832" y="251.132" fill="#9A9A9A" width="39.338" height="33.868"/>
			</g>
		</g>
	</g>
	<g>
		<g>
		</g>
		<g>
		</g>
		<g>
		</g>
		<g>
		</g>
		<g>
		</g>
	</g>
</g>
<g display="none">
	<path display="inline" fill="#DBD9D9" stroke="#999999" stroke-miterlimit="10" d="M4.471,213.5c-0.001-3-0.013-2.409-0.013-2.576
		C4.459,130.544,69.62,63.223,150,63.223s145.541,66.532,145.541,146.912c0,0.167-0.012,0.365-0.013,3.365h-59.811
		c0.001-3,0.013-2.409,0.013-2.576c0-47.272-38.458-87.89-85.73-87.89s-85.73,39.829-85.73,87.101c0,0.167,0.012,0.365,0.013,3.365
		H4.471z"/>
	<g display="inline">
		<defs>
			<path id="SVGID_1_" d="M4.471,214c-0.001-3-0.013-2.659-0.013-2.826C4.459,130.794,69.62,63.348,150,63.348
				s145.541,66.72,145.541,147.1c0,0.167-0.012,0.552-0.013,3.552h-59.811c0.001-3,0.013-2.659,0.013-2.826
				c0-47.272-38.458-88.015-85.73-88.015s-85.73,40.017-85.73,87.288c0,0.167,0.012,0.552,0.013,3.552H4.471z"/>
		</defs>
		<clipPath id="SVGID_2_">
			<use xlink:href="#SVGID_1_"  overflow="visible"/>
		</clipPath>
		<path clip-path="url(#SVGID_2_)" fill="#848383" d="M153.749,127.386l6.821-74.239C69.205,54.144-7.924,135.833-7.847,233.442
			c0,0.2,69.819,0.352,69.819,0.152C61.972,177.632,99.234,129.518,153.749,127.386z"/>
	</g>
	<g display="inline">
		<path fill="#4C4C4C" d="M146.763,185.021c0,10.508-3.899,16.309-10.746,16.309c-6.039,0-10.127-5.658-10.222-15.881
			c0-10.365,4.469-16.07,10.745-16.07C143.055,169.378,146.763,175.178,146.763,185.021z M129.979,185.496
			c0,8.035,2.473,12.6,6.276,12.6c4.279,0,6.324-4.992,6.324-12.885c0-7.607-1.95-12.601-6.276-12.601
			C132.642,172.61,129.979,177.08,129.979,185.496z"/>
		<path fill="#4C4C4C" d="M171.154,185.021c0,10.508-3.898,16.309-10.745,16.309c-6.039,0-10.128-5.658-10.223-15.881
			c0-10.365,4.469-16.07,10.746-16.07C167.445,169.378,171.154,175.178,171.154,185.021z M154.37,185.496
			c0,8.035,2.473,12.6,6.276,12.6c4.279,0,6.323-4.992,6.323-12.885c0-7.607-1.949-12.601-6.275-12.601
			C157.033,172.61,154.37,177.08,154.37,185.496z"/>
	</g>
	<g display="inline">
		<path fill="#4C4C4C" d="M36.73,225.096c0,3.635-1.349,5.642-3.717,5.642c-2.089,0-3.504-1.957-3.537-5.494
			c0-3.585,1.546-5.56,3.717-5.56C35.447,219.684,36.73,221.69,36.73,225.096z M30.923,225.26c0,2.78,0.855,4.359,2.171,4.359
			c1.48,0,2.188-1.728,2.188-4.458c0-2.632-0.674-4.358-2.171-4.358C31.845,220.803,30.923,222.349,30.923,225.26z"/>
	</g>
	<g display="inline">
		<path fill="#4C4C4C" d="M257.557,221.214h-0.033l-1.858,1.003l-0.279-1.102l2.336-1.25h1.233v10.691h-1.398V221.214z"/>
		<path fill="#4C4C4C" d="M269.961,225.096c0,3.635-1.349,5.642-3.717,5.642c-2.089,0-3.504-1.957-3.537-5.494
			c0-3.585,1.547-5.56,3.718-5.56C268.679,219.684,269.961,221.69,269.961,225.096z M264.155,225.26c0,2.78,0.854,4.359,2.171,4.359
			c1.48,0,2.188-1.728,2.188-4.458c0-2.632-0.674-4.358-2.171-4.358C265.076,220.803,264.155,222.349,264.155,225.26z"/>
		<path fill="#4C4C4C" d="M278.402,225.096c0,3.635-1.349,5.642-3.717,5.642c-2.089,0-3.504-1.957-3.537-5.494
			c0-3.585,1.547-5.56,3.718-5.56C277.12,219.684,278.402,221.69,278.402,225.096z M272.597,225.26c0,2.78,0.854,4.359,2.171,4.359
			c1.48,0,2.188-1.728,2.188-4.458c0-2.632-0.674-4.358-2.171-4.358C273.518,220.803,272.597,222.349,272.597,225.26z"/>
	</g>
</g>
<g display="none">
	<g display="inline">
		<line fill="none" stroke="#D3D3D3" stroke-miterlimit="10" x1="21" y1="20.5" x2="279" y2="20.5"/>
		<line fill="none" stroke="#D3D3D3" stroke-miterlimit="10" x1="21" y1="84.5" x2="279" y2="84.5"/>
		<line fill="none" stroke="#D3D3D3" stroke-miterlimit="10" x1="21" y1="150.5" x2="279" y2="150.5"/>
		<line fill="none" stroke="#D3D3D3" stroke-miterlimit="10" x1="21" y1="216.5" x2="279" y2="216.5"/>
		<line fill="none" stroke="#D3D3D3" stroke-miterlimit="10" x1="21" y1="282.5" x2="279" y2="282.5"/>
	</g>
	
		<rect x="75" y="93" display="inline" fill="#DBD9D9" stroke="#999999" stroke-width="2" stroke-miterlimit="10" width="145" height="66"/>
	
		<rect x="75" y="159" display="inline" fill="#DBD9D9" stroke="#999999" stroke-width="2" stroke-miterlimit="10" width="145" height="66"/>
	<g display="inline">
		<line fill="#DBD9D9" stroke="#999999" stroke-width="2" stroke-miterlimit="10" x1="148" y1="93" x2="148" y2="42"/>
		<line fill="#DBD9D9" stroke="#999999" stroke-width="2" stroke-miterlimit="10" x1="87" y1="42" x2="216" y2="42"/>
	</g>
	<g display="inline">
		<line fill="#DBD9D9" stroke="#999999" stroke-width="2" stroke-miterlimit="10" x1="148" y1="225" x2="148" y2="276"/>
		<line fill="#DBD9D9" stroke="#999999" stroke-width="2" stroke-miterlimit="10" x1="87" y1="276" x2="216" y2="276"/>
	</g>
</g>
<path display="none" fill="#D66971" d="M178.489,171.663c-7.174,0-12.99,5.816-12.99,12.99c0,7.174,5.816,12.99,12.99,12.99
	c7.174,0,12.99-5.816,12.99-12.99C191.479,177.479,185.663,171.663,178.489,171.663z M187.235,184.653c0,1.031-0.18,2.02-0.509,2.94
	l-14.093-9.43c1.552-1.401,3.606-2.256,5.856-2.256C183.312,175.907,187.235,179.83,187.235,184.653z M169.743,184.653
	c0-1.105,0.207-2.163,0.582-3.137L184.5,191c-1.568,1.486-3.685,2.399-6.011,2.399C173.666,193.399,169.743,189.475,169.743,184.653
	z"/>
<g>
	<circle fill="#D8D6D6" cx="256.165" cy="74.769" r="16.448"/>
	<path fill="#999999" d="M275.604,44.739c-2.492-27.414-20.934-26.884-20.934-26.884s-18.442-0.53-20.934,26.884
		c0,0-2.991,1.62-5.981,6.106v28.41c0,0,5.981,15.95,26.915,17.445c20.934-1.495,26.915-17.445,26.915-17.445v-28.41
		C278.595,46.359,275.604,44.739,275.604,44.739z M257.661,73.274v5.981h-2.991h-2.991v-5.981c0,0-12.025-9.844,2.928-14.33
		C269.311,63.368,257.661,73.274,257.661,73.274z M254.67,43.368h-11.962c0,0,0.997-17.445,11.962-17.445
		c10.965,0,11.962,17.445,11.962,17.445H254.67z"/>
</g>
<path fill="#FFFFFF" d="M121,169.917"/>
<g>
</g>
<g>
</g>
<g>
</g>
<g>
</g>
<g>
</g>
<g>
</g>
<g>
</g>
<g>
</g>
<g>
</g>
<g>
</g>
<g>
</g>
<g>
</g>
<g>
</g>
<g>
</g>
<g>
</g>
</svg>
